<svg xmlns="http://www.w3.org/2000/svg" width="80" height="80" fill="none" overflow="visible"><path d="M 0 45 L 0 8.08 C 0 5.777 0.772 3.855 2.315 2.315 C 3.858 0.775 5.78 0.003 8.08 0 L 35 0 L 35 45 Z M 45 0 L 71.925 0 C 74.225 0 76.145 0.772 77.685 2.315 C 79.225 3.858 79.997 5.79 80 8.11 L 80 25 L 45 25 Z M 45 80 L 45 35 L 80 35 L 80 71.925 C 80 74.225 79.23 76.145 77.69 77.685 C 76.15 79.225 74.227 79.997 71.92 80 Z M 0 55 L 35 55 L 35 80 L 8.08 80 C 5.777 80 3.855 79.23 2.315 77.69 C 0.775 76.15 0.003 74.217 0 71.89 Z" fill="rgb(255, 255, 255)"></path></svg>