<svg xmlns="http://www.w3.org/2000/svg" width="80" height="80" fill="none" overflow="visible"><path d="M 63.6 61.56 C 62.56 58.36 59.56 56 56 56 L 52 56 L 52 44 C 52 41.791 50.209 40 48 40 L 24 40 L 24 32 L 32 32 C 34.209 32 36 30.209 36 28 L 36 20 L 44 20 C 48.418 20 52 16.418 52 12 L 52 10.36 C 61.714 14.276 68.891 22.708 71.205 32.923 C 73.52 43.138 70.678 53.839 63.6 61.56 M 36 71.72 C 20.2 69.76 8 56.32 8 40 C 8 37.52 8.32 35.12 8.84 32.84 L 28 52 L 28 56 C 28 60.418 31.582 64 36 64 M 40 0 C 17.909 0 0 17.909 0 40 C 0 62.091 17.909 80 40 80 C 62.091 80 80 62.091 80 40 C 80 17.909 62.091 0 40 0" fill="rgb(255, 255, 255)"></path></svg>