<svg xmlns="http://www.w3.org/2000/svg" width="91.366" height="70" fill="none" overflow="visible"><path d="M 19.718 1.244 C 18.948 0.458 17.897 0.011 16.797 0 C 15.698 -0.011 14.638 0.416 13.853 1.187 C 4.974 10.019 -0.012 22.029 0 34.552 C -0.013 47.567 5.371 60.004 14.87 68.9 C 16.514 70.42 19.07 70.357 20.637 68.757 C 22.442 66.953 22.219 64.081 20.483 62.419 C 12.861 55.155 8.553 45.082 8.566 34.552 C 8.566 24.011 12.797 14.452 19.661 7.497 C 21.317 5.812 21.488 3.014 19.718 1.244 M 29.774 11.311 C 28.208 9.7 25.634 9.659 24.018 11.22 C 17.775 17.378 14.266 25.784 14.276 34.552 C 14.276 44.214 18.444 52.9 25.086 58.907 C 26.715 60.344 29.185 60.248 30.699 58.69 C 32.572 56.817 32.224 53.87 30.465 52.214 C 25.593 47.633 22.834 41.24 22.841 34.552 C 22.841 27.985 25.451 22.024 29.694 17.65 C 31.327 15.971 31.595 13.121 29.774 11.306 M 61.592 11.306 C 63.158 9.694 65.732 9.654 67.348 11.214 C 73.592 17.373 77.102 25.782 77.09 34.552 C 77.09 44.214 72.921 52.9 66.28 58.907 C 64.651 60.344 62.18 60.248 60.667 58.69 C 58.794 56.817 59.142 53.87 60.901 52.214 C 65.772 47.633 68.531 41.24 68.524 34.552 C 68.524 27.985 65.915 22.024 61.672 17.65 C 60.039 15.971 59.77 13.121 61.592 11.306 M 71.648 1.244 C 72.418 0.458 73.468 0.011 74.568 0 C 75.668 -0.011 76.727 0.416 77.512 1.187 C 86.391 10.019 91.378 22.029 91.366 34.552 C 91.379 47.567 85.994 60.004 76.496 68.9 C 74.851 70.42 72.296 70.357 70.728 68.757 C 68.924 66.953 69.147 64.081 70.888 62.419 C 78.508 55.154 82.814 45.081 82.8 34.552 C 82.8 24.011 78.569 14.452 71.705 7.497 C 70.049 5.812 69.878 3.014 71.648 1.244 M 45.683 25.987 C 40.952 25.987 37.117 29.822 37.117 34.552 C 37.117 39.283 40.952 43.118 45.683 43.118 C 50.413 43.118 54.248 39.283 54.248 34.552 C 54.248 29.822 50.413 25.987 45.683 25.987" fill="rgb(255, 255, 255)"></path></svg>