<svg xmlns="http://www.w3.org/2000/svg" width="83.412" height="80" fill="none" overflow="visible"><path d="M 42.464 27.678 L 34.882 20.095 L 45.498 20.095 C 49.668 20.095 53.081 23.507 53.081 27.678 L 53.081 38.294 L 45.498 30.711 L 45.498 27.678 Z M 83.412 27.678 L 83.412 20.095 L 68.246 20.095 C 64.076 20.095 60.664 23.507 60.664 27.678 L 60.664 35.261 C 60.664 39.431 64.076 42.844 68.246 42.844 L 75.829 42.844 L 75.829 50.427 L 65.213 50.427 L 72.796 58.009 L 75.829 58.009 C 80 58.009 83.412 54.597 83.412 50.427 L 83.412 42.844 C 83.412 38.673 80 35.261 75.829 35.261 L 68.246 35.261 L 68.246 27.678 Z M 80 75.071 L 75.071 80 L 50.806 55.735 C 49.668 56.872 47.773 58.009 45.498 58.009 L 30.332 58.009 L 30.332 34.882 L 22.749 27.299 L 22.749 58.009 L 15.166 58.009 L 15.166 42.844 L 7.583 42.844 L 7.583 58.009 L 0 58.009 L 0 27.678 C 0 23.507 3.412 20.095 7.583 20.095 L 15.545 20.095 L 0.379 4.929 L 5.308 0 Z M 15.166 27.678 L 7.583 27.678 L 7.583 35.261 L 15.166 35.261 Z M 45.498 50.047 L 37.915 42.464 L 37.915 50.427 L 45.498 50.427 Z" fill="rgb(255, 255, 255)"></path></svg>