<svg xmlns="http://www.w3.org/2000/svg" width="88.889" height="80" fill="none" overflow="visible"><path d="M 26.667 80 L 26.667 75.556 L 35.556 66.667 L 8.889 66.667 C 6.444 66.667 4.353 65.797 2.613 64.058 C 0.874 62.319 0.003 60.225 0 57.778 L 0 8.889 C 0 6.444 0.871 4.353 2.613 2.613 C 4.356 0.874 6.447 0.003 8.889 0 L 80 0 C 82.444 0 84.538 0.871 86.28 2.613 C 88.022 4.356 88.892 6.447 88.889 8.889 L 88.889 57.778 C 88.889 60.222 88.019 62.316 86.28 64.058 C 84.541 65.8 82.447 66.67 80 66.667 L 53.333 66.667 L 62.222 75.556 L 62.222 80 Z M 8.889 44.444 L 80 44.444 L 80 8.889 L 8.889 8.889 Z M 8.889 44.444 L 8.889 8.889" fill="rgb(255, 255, 255)"></path></svg>